<mxfile host="app.diagrams.net" modified="2024-05-28T22:14:08.768Z" agent="Mozilla/5.0 (Windows NT 10.0; Win64; x64; rv:109.0) Gecko/20100101 Firefox/115.0" etag="54oaFFNH76Oiuqy0NHf_" version="24.4.9" type="device">
  <diagram name="Страница — 1" id="IGH_Bf1mawBqCRgGCyPB">
    <mxGraphModel dx="1274" dy="719" grid="1" gridSize="10" guides="1" tooltips="1" connect="1" arrows="1" fold="1" page="1" pageScale="1" pageWidth="2400" pageHeight="1100" math="0" shadow="0">
      <root>
        <mxCell id="0" />
        <mxCell id="1" parent="0" />
        <mxCell id="5CZu6_UWeMTuLkj3tGNh-1" value="Предоставление новостей и информации о баскетбольных командах" style="rounded=0;whiteSpace=wrap;html=1;" parent="1" vertex="1">
          <mxGeometry x="135" y="115" width="200" height="100" as="geometry" />
        </mxCell>
        <mxCell id="5CZu6_UWeMTuLkj3tGNh-2" value="" style="endArrow=classic;html=1;rounded=0;entryX=0;entryY=0.5;entryDx=0;entryDy=0;" parent="1" target="5CZu6_UWeMTuLkj3tGNh-1" edge="1">
          <mxGeometry width="50" height="50" relative="1" as="geometry">
            <mxPoint x="20" y="165" as="sourcePoint" />
            <mxPoint x="65" y="165" as="targetPoint" />
          </mxGeometry>
        </mxCell>
        <mxCell id="5CZu6_UWeMTuLkj3tGNh-10" value="Пользователи" style="edgeLabel;html=1;align=center;verticalAlign=middle;resizable=0;points=[];" parent="5CZu6_UWeMTuLkj3tGNh-2" vertex="1" connectable="0">
          <mxGeometry x="-0.3718" y="-1" relative="1" as="geometry">
            <mxPoint x="18" y="-1" as="offset" />
          </mxGeometry>
        </mxCell>
        <mxCell id="5CZu6_UWeMTuLkj3tGNh-4" value="" style="endArrow=classic;html=1;rounded=0;entryX=0.25;entryY=1;entryDx=0;entryDy=0;" parent="1" target="5CZu6_UWeMTuLkj3tGNh-1" edge="1">
          <mxGeometry width="50" height="50" relative="1" as="geometry">
            <mxPoint x="185" y="300" as="sourcePoint" />
            <mxPoint x="235" y="295" as="targetPoint" />
          </mxGeometry>
        </mxCell>
        <mxCell id="5CZu6_UWeMTuLkj3tGNh-13" value="Интерфейс&lt;div&gt;сайта&lt;/div&gt;" style="edgeLabel;html=1;align=center;verticalAlign=middle;resizable=0;points=[];" parent="5CZu6_UWeMTuLkj3tGNh-4" vertex="1" connectable="0">
          <mxGeometry x="0.3126" relative="1" as="geometry">
            <mxPoint y="16" as="offset" />
          </mxGeometry>
        </mxCell>
        <mxCell id="5CZu6_UWeMTuLkj3tGNh-5" value="" style="endArrow=classic;html=1;rounded=0;entryX=0.75;entryY=1;entryDx=0;entryDy=0;" parent="1" target="5CZu6_UWeMTuLkj3tGNh-1" edge="1">
          <mxGeometry width="50" height="50" relative="1" as="geometry">
            <mxPoint x="285" y="300" as="sourcePoint" />
            <mxPoint x="265" y="255" as="targetPoint" />
          </mxGeometry>
        </mxCell>
        <mxCell id="5CZu6_UWeMTuLkj3tGNh-14" value="Администраторы" style="edgeLabel;html=1;align=center;verticalAlign=middle;resizable=0;points=[];" parent="5CZu6_UWeMTuLkj3tGNh-5" vertex="1" connectable="0">
          <mxGeometry x="0.0437" y="1" relative="1" as="geometry">
            <mxPoint as="offset" />
          </mxGeometry>
        </mxCell>
        <mxCell id="5CZu6_UWeMTuLkj3tGNh-6" value="" style="endArrow=classic;html=1;rounded=0;exitX=1;exitY=0.5;exitDx=0;exitDy=0;" parent="1" source="5CZu6_UWeMTuLkj3tGNh-1" edge="1">
          <mxGeometry width="50" height="50" relative="1" as="geometry">
            <mxPoint x="420" y="170" as="sourcePoint" />
            <mxPoint x="460" y="165" as="targetPoint" />
          </mxGeometry>
        </mxCell>
        <mxCell id="5CZu6_UWeMTuLkj3tGNh-16" value="Команды" style="edgeLabel;html=1;align=center;verticalAlign=middle;resizable=0;points=[];" parent="5CZu6_UWeMTuLkj3tGNh-6" vertex="1" connectable="0">
          <mxGeometry x="-0.2832" y="-1" relative="1" as="geometry">
            <mxPoint x="14" y="-1" as="offset" />
          </mxGeometry>
        </mxCell>
        <mxCell id="5CZu6_UWeMTuLkj3tGNh-7" value="" style="endArrow=classic;html=1;rounded=0;exitX=1;exitY=0.25;exitDx=0;exitDy=0;" parent="1" source="5CZu6_UWeMTuLkj3tGNh-1" edge="1">
          <mxGeometry width="50" height="50" relative="1" as="geometry">
            <mxPoint x="465" y="140" as="sourcePoint" />
            <mxPoint x="460" y="140" as="targetPoint" />
          </mxGeometry>
        </mxCell>
        <mxCell id="5CZu6_UWeMTuLkj3tGNh-15" value="Новости" style="edgeLabel;html=1;align=center;verticalAlign=middle;resizable=0;points=[];" parent="5CZu6_UWeMTuLkj3tGNh-7" vertex="1" connectable="0">
          <mxGeometry x="-0.4571" y="1" relative="1" as="geometry">
            <mxPoint x="24" y="1" as="offset" />
          </mxGeometry>
        </mxCell>
        <mxCell id="5CZu6_UWeMTuLkj3tGNh-8" value="" style="endArrow=classic;html=1;rounded=0;entryX=0.5;entryY=0;entryDx=0;entryDy=0;" parent="1" target="5CZu6_UWeMTuLkj3tGNh-1" edge="1">
          <mxGeometry width="50" height="50" relative="1" as="geometry">
            <mxPoint x="235" y="20" as="sourcePoint" />
            <mxPoint x="235" y="55" as="targetPoint" />
          </mxGeometry>
        </mxCell>
        <mxCell id="5CZu6_UWeMTuLkj3tGNh-19" value="Правила обслуживания&lt;div&gt;пользователей&lt;/div&gt;" style="edgeLabel;html=1;align=center;verticalAlign=middle;resizable=0;points=[];" parent="5CZu6_UWeMTuLkj3tGNh-8" vertex="1" connectable="0">
          <mxGeometry x="0.0279" y="-1" relative="1" as="geometry">
            <mxPoint as="offset" />
          </mxGeometry>
        </mxCell>
        <mxCell id="5CZu6_UWeMTuLkj3tGNh-17" value="" style="endArrow=classic;html=1;rounded=0;exitX=1;exitY=0.75;exitDx=0;exitDy=0;" parent="1" source="5CZu6_UWeMTuLkj3tGNh-1" edge="1">
          <mxGeometry width="50" height="50" relative="1" as="geometry">
            <mxPoint x="360" y="180" as="sourcePoint" />
            <mxPoint x="460" y="190" as="targetPoint" />
          </mxGeometry>
        </mxCell>
        <mxCell id="5CZu6_UWeMTuLkj3tGNh-18" value="Расписание матчей" style="edgeLabel;html=1;align=center;verticalAlign=middle;resizable=0;points=[];" parent="5CZu6_UWeMTuLkj3tGNh-17" vertex="1" connectable="0">
          <mxGeometry x="-0.4571" y="1" relative="1" as="geometry">
            <mxPoint x="24" y="1" as="offset" />
          </mxGeometry>
        </mxCell>
        <mxCell id="5CZu6_UWeMTuLkj3tGNh-27" style="edgeStyle=orthogonalEdgeStyle;rounded=0;orthogonalLoop=1;jettySize=auto;html=1;entryX=0;entryY=0.5;entryDx=0;entryDy=0;" parent="1" source="5CZu6_UWeMTuLkj3tGNh-20" target="5CZu6_UWeMTuLkj3tGNh-25" edge="1">
          <mxGeometry relative="1" as="geometry" />
        </mxCell>
        <mxCell id="5CZu6_UWeMTuLkj3tGNh-31" value="Передача на&lt;div&gt;проверку&lt;/div&gt;" style="edgeLabel;html=1;align=center;verticalAlign=middle;resizable=0;points=[];" parent="5CZu6_UWeMTuLkj3tGNh-27" vertex="1" connectable="0">
          <mxGeometry x="-0.0852" y="1" relative="1" as="geometry">
            <mxPoint as="offset" />
          </mxGeometry>
        </mxCell>
        <mxCell id="5CZu6_UWeMTuLkj3tGNh-20" value="Заполнение данных о команде или новости" style="rounded=0;whiteSpace=wrap;html=1;" parent="1" vertex="1">
          <mxGeometry x="660" y="110" width="170" height="80" as="geometry" />
        </mxCell>
        <mxCell id="5CZu6_UWeMTuLkj3tGNh-21" value="" style="endArrow=classic;html=1;rounded=0;entryX=0;entryY=0.5;entryDx=0;entryDy=0;" parent="1" target="5CZu6_UWeMTuLkj3tGNh-20" edge="1">
          <mxGeometry width="50" height="50" relative="1" as="geometry">
            <mxPoint x="550" y="150" as="sourcePoint" />
            <mxPoint x="620" y="140" as="targetPoint" />
          </mxGeometry>
        </mxCell>
        <mxCell id="5CZu6_UWeMTuLkj3tGNh-22" value="Администраторы" style="edgeLabel;html=1;align=center;verticalAlign=middle;resizable=0;points=[];" parent="5CZu6_UWeMTuLkj3tGNh-21" vertex="1" connectable="0">
          <mxGeometry x="-0.5288" y="-1" relative="1" as="geometry">
            <mxPoint x="24" y="-1" as="offset" />
          </mxGeometry>
        </mxCell>
        <mxCell id="5CZu6_UWeMTuLkj3tGNh-23" value="" style="endArrow=classic;html=1;rounded=0;entryX=0.5;entryY=1;entryDx=0;entryDy=0;" parent="1" target="5CZu6_UWeMTuLkj3tGNh-20" edge="1">
          <mxGeometry width="50" height="50" relative="1" as="geometry">
            <mxPoint x="745" y="270" as="sourcePoint" />
            <mxPoint x="700" y="230" as="targetPoint" />
          </mxGeometry>
        </mxCell>
        <mxCell id="5CZu6_UWeMTuLkj3tGNh-30" value="Интерфейс&lt;div&gt;сайта&lt;/div&gt;" style="edgeLabel;html=1;align=center;verticalAlign=middle;resizable=0;points=[];" parent="5CZu6_UWeMTuLkj3tGNh-23" vertex="1" connectable="0">
          <mxGeometry x="-0.0008" y="-1" relative="1" as="geometry">
            <mxPoint as="offset" />
          </mxGeometry>
        </mxCell>
        <mxCell id="cYVr-QTFlKvtjmaRscSf-2" style="edgeStyle=orthogonalEdgeStyle;rounded=0;orthogonalLoop=1;jettySize=auto;html=1;entryX=0;entryY=0.5;entryDx=0;entryDy=0;" parent="1" source="5CZu6_UWeMTuLkj3tGNh-25" target="cYVr-QTFlKvtjmaRscSf-1" edge="1">
          <mxGeometry relative="1" as="geometry" />
        </mxCell>
        <mxCell id="cYVr-QTFlKvtjmaRscSf-3" value="&lt;div&gt;Добавление&lt;/div&gt;&lt;div&gt;на сайт&lt;br&gt;&lt;/div&gt;" style="edgeLabel;html=1;align=center;verticalAlign=middle;resizable=0;points=[];" parent="cYVr-QTFlKvtjmaRscSf-2" vertex="1" connectable="0">
          <mxGeometry x="-0.025" y="1" relative="1" as="geometry">
            <mxPoint as="offset" />
          </mxGeometry>
        </mxCell>
        <mxCell id="5CZu6_UWeMTuLkj3tGNh-25" value="Проверка данных" style="rounded=0;whiteSpace=wrap;html=1;" parent="1" vertex="1">
          <mxGeometry x="900" y="200" width="170" height="80" as="geometry" />
        </mxCell>
        <mxCell id="5CZu6_UWeMTuLkj3tGNh-28" value="" style="endArrow=classic;html=1;rounded=0;entryX=0.5;entryY=0;entryDx=0;entryDy=0;" parent="1" target="5CZu6_UWeMTuLkj3tGNh-20" edge="1">
          <mxGeometry width="50" height="50" relative="1" as="geometry">
            <mxPoint x="745" y="30" as="sourcePoint" />
            <mxPoint x="770" y="50" as="targetPoint" />
          </mxGeometry>
        </mxCell>
        <mxCell id="5CZu6_UWeMTuLkj3tGNh-29" value="Следование&lt;div&gt;документации&lt;/div&gt;" style="edgeLabel;html=1;align=center;verticalAlign=middle;resizable=0;points=[];" parent="5CZu6_UWeMTuLkj3tGNh-28" vertex="1" connectable="0">
          <mxGeometry x="-0.2568" relative="1" as="geometry">
            <mxPoint y="10" as="offset" />
          </mxGeometry>
        </mxCell>
        <mxCell id="5CZu6_UWeMTuLkj3tGNh-32" value="" style="endArrow=classic;html=1;rounded=0;entryX=0.5;entryY=1;entryDx=0;entryDy=0;" parent="1" target="5CZu6_UWeMTuLkj3tGNh-25" edge="1">
          <mxGeometry width="50" height="50" relative="1" as="geometry">
            <mxPoint x="985" y="360" as="sourcePoint" />
            <mxPoint x="1030" y="320" as="targetPoint" />
          </mxGeometry>
        </mxCell>
        <mxCell id="5CZu6_UWeMTuLkj3tGNh-33" value="Модерация" style="edgeLabel;html=1;align=center;verticalAlign=middle;resizable=0;points=[];" parent="5CZu6_UWeMTuLkj3tGNh-32" vertex="1" connectable="0">
          <mxGeometry x="-0.0008" y="-1" relative="1" as="geometry">
            <mxPoint as="offset" />
          </mxGeometry>
        </mxCell>
        <mxCell id="cYVr-QTFlKvtjmaRscSf-5" style="edgeStyle=orthogonalEdgeStyle;rounded=0;orthogonalLoop=1;jettySize=auto;html=1;" parent="1" edge="1">
          <mxGeometry relative="1" as="geometry">
            <mxPoint x="1440" y="330" as="targetPoint" />
            <mxPoint x="1310" y="330" as="sourcePoint" />
          </mxGeometry>
        </mxCell>
        <mxCell id="cYVr-QTFlKvtjmaRscSf-59" value="Вывод информации" style="edgeLabel;html=1;align=center;verticalAlign=middle;resizable=0;points=[];" parent="cYVr-QTFlKvtjmaRscSf-5" vertex="1" connectable="0">
          <mxGeometry x="-0.3202" y="2" relative="1" as="geometry">
            <mxPoint x="16" y="2" as="offset" />
          </mxGeometry>
        </mxCell>
        <mxCell id="cYVr-QTFlKvtjmaRscSf-1" value="Вывод на сайт" style="rounded=0;whiteSpace=wrap;html=1;" parent="1" vertex="1">
          <mxGeometry x="1140" y="290" width="170" height="80" as="geometry" />
        </mxCell>
        <mxCell id="cYVr-QTFlKvtjmaRscSf-14" style="edgeStyle=orthogonalEdgeStyle;rounded=0;orthogonalLoop=1;jettySize=auto;html=1;entryX=0.5;entryY=0;entryDx=0;entryDy=0;" parent="1" source="cYVr-QTFlKvtjmaRscSf-7" target="cYVr-QTFlKvtjmaRscSf-13" edge="1">
          <mxGeometry relative="1" as="geometry" />
        </mxCell>
        <mxCell id="cYVr-QTFlKvtjmaRscSf-7" value="Начало" style="rounded=1;whiteSpace=wrap;html=1;" parent="1" vertex="1">
          <mxGeometry x="1560" y="50" width="120" height="40" as="geometry" />
        </mxCell>
        <mxCell id="cYVr-QTFlKvtjmaRscSf-11" style="edgeStyle=orthogonalEdgeStyle;rounded=0;orthogonalLoop=1;jettySize=auto;html=1;entryX=0.5;entryY=0;entryDx=0;entryDy=0;" parent="1" source="cYVr-QTFlKvtjmaRscSf-8" target="cYVr-QTFlKvtjmaRscSf-10" edge="1">
          <mxGeometry relative="1" as="geometry" />
        </mxCell>
        <mxCell id="cYVr-QTFlKvtjmaRscSf-8" value="&lt;div&gt;Получить элемент&lt;/div&gt;&lt;div&gt;формы с классом&lt;/div&gt;&lt;div&gt;subscribeForm&lt;/div&gt;" style="rounded=1;whiteSpace=wrap;html=1;align=center;" parent="1" vertex="1">
          <mxGeometry x="1560" y="190" width="120" height="60" as="geometry" />
        </mxCell>
        <mxCell id="cYVr-QTFlKvtjmaRscSf-52" style="edgeStyle=orthogonalEdgeStyle;rounded=0;orthogonalLoop=1;jettySize=auto;html=1;entryX=0;entryY=0.5;entryDx=0;entryDy=0;" parent="1" source="cYVr-QTFlKvtjmaRscSf-10" target="cYVr-QTFlKvtjmaRscSf-18" edge="1">
          <mxGeometry relative="1" as="geometry" />
        </mxCell>
        <mxCell id="cYVr-QTFlKvtjmaRscSf-10" value="&lt;div&gt;Добавить обработчик&lt;/div&gt;&lt;div&gt;события submit к&lt;/div&gt;&lt;div&gt;форме&lt;/div&gt;" style="rounded=1;whiteSpace=wrap;html=1;align=center;" parent="1" vertex="1">
          <mxGeometry x="1560" y="280" width="120" height="60" as="geometry" />
        </mxCell>
        <mxCell id="cYVr-QTFlKvtjmaRscSf-15" style="edgeStyle=orthogonalEdgeStyle;rounded=0;orthogonalLoop=1;jettySize=auto;html=1;entryX=0.5;entryY=0;entryDx=0;entryDy=0;" parent="1" source="cYVr-QTFlKvtjmaRscSf-13" target="cYVr-QTFlKvtjmaRscSf-8" edge="1">
          <mxGeometry relative="1" as="geometry">
            <mxPoint x="1600" y="170" as="targetPoint" />
          </mxGeometry>
        </mxCell>
        <mxCell id="cYVr-QTFlKvtjmaRscSf-13" value="&lt;div&gt;Ждать события&lt;/div&gt;&lt;div&gt;DOMContentLoaded&lt;/div&gt;" style="rounded=1;whiteSpace=wrap;html=1;" parent="1" vertex="1">
          <mxGeometry x="1560" y="120" width="120" height="40" as="geometry" />
        </mxCell>
        <mxCell id="cYVr-QTFlKvtjmaRscSf-53" style="edgeStyle=orthogonalEdgeStyle;rounded=0;orthogonalLoop=1;jettySize=auto;html=1;entryX=0.5;entryY=0;entryDx=0;entryDy=0;" parent="1" source="cYVr-QTFlKvtjmaRscSf-18" target="cYVr-QTFlKvtjmaRscSf-20" edge="1">
          <mxGeometry relative="1" as="geometry" />
        </mxCell>
        <mxCell id="cYVr-QTFlKvtjmaRscSf-18" value="&lt;div&gt;Остановить&lt;/div&gt;&lt;div&gt;стандартное&lt;/div&gt;&lt;div&gt;поведение формы&lt;/div&gt;" style="rounded=1;whiteSpace=wrap;html=1;align=center;" parent="1" vertex="1">
          <mxGeometry x="1720" y="280" width="120" height="60" as="geometry" />
        </mxCell>
        <mxCell id="cYVr-QTFlKvtjmaRscSf-23" style="edgeStyle=orthogonalEdgeStyle;rounded=0;orthogonalLoop=1;jettySize=auto;html=1;entryX=0.5;entryY=0;entryDx=0;entryDy=0;" parent="1" source="cYVr-QTFlKvtjmaRscSf-20" target="cYVr-QTFlKvtjmaRscSf-22" edge="1">
          <mxGeometry relative="1" as="geometry" />
        </mxCell>
        <mxCell id="cYVr-QTFlKvtjmaRscSf-20" value="Получить значение почты из поля ввода с ID email" style="rounded=1;whiteSpace=wrap;html=1;align=center;" parent="1" vertex="1">
          <mxGeometry x="1720" y="370" width="120" height="60" as="geometry" />
        </mxCell>
        <mxCell id="cYVr-QTFlKvtjmaRscSf-25" style="edgeStyle=orthogonalEdgeStyle;rounded=0;orthogonalLoop=1;jettySize=auto;html=1;entryX=0.5;entryY=0;entryDx=0;entryDy=0;" parent="1" source="cYVr-QTFlKvtjmaRscSf-22" target="cYVr-QTFlKvtjmaRscSf-24" edge="1">
          <mxGeometry relative="1" as="geometry" />
        </mxCell>
        <mxCell id="cYVr-QTFlKvtjmaRscSf-22" value="Получить элемент для сообщений с ID message" style="rounded=1;whiteSpace=wrap;html=1;align=center;" parent="1" vertex="1">
          <mxGeometry x="1720" y="460" width="120" height="60" as="geometry" />
        </mxCell>
        <mxCell id="cYVr-QTFlKvtjmaRscSf-54" style="edgeStyle=orthogonalEdgeStyle;rounded=0;orthogonalLoop=1;jettySize=auto;html=1;entryX=0;entryY=0.5;entryDx=0;entryDy=0;" parent="1" source="cYVr-QTFlKvtjmaRscSf-24" target="cYVr-QTFlKvtjmaRscSf-29" edge="1">
          <mxGeometry relative="1" as="geometry" />
        </mxCell>
        <mxCell id="cYVr-QTFlKvtjmaRscSf-24" value="&lt;div&gt;Вызвать функцию&lt;/div&gt;&lt;div&gt;validateEmail с переданным значением email&lt;/div&gt;" style="rounded=1;whiteSpace=wrap;html=1;align=center;" parent="1" vertex="1">
          <mxGeometry x="1720" y="550" width="120" height="60" as="geometry" />
        </mxCell>
        <mxCell id="cYVr-QTFlKvtjmaRscSf-33" style="edgeStyle=orthogonalEdgeStyle;rounded=0;orthogonalLoop=1;jettySize=auto;html=1;entryX=0.5;entryY=0;entryDx=0;entryDy=0;" parent="1" source="cYVr-QTFlKvtjmaRscSf-29" target="cYVr-QTFlKvtjmaRscSf-31" edge="1">
          <mxGeometry relative="1" as="geometry" />
        </mxCell>
        <mxCell id="cYVr-QTFlKvtjmaRscSf-29" value="Создать регулярное выражение для проверки почты" style="rounded=1;whiteSpace=wrap;html=1;align=center;" parent="1" vertex="1">
          <mxGeometry x="1880" y="550" width="120" height="60" as="geometry" />
        </mxCell>
        <mxCell id="cYVr-QTFlKvtjmaRscSf-34" style="edgeStyle=orthogonalEdgeStyle;rounded=0;orthogonalLoop=1;jettySize=auto;html=1;entryX=0.5;entryY=0;entryDx=0;entryDy=0;" parent="1" source="cYVr-QTFlKvtjmaRscSf-31" target="cYVr-QTFlKvtjmaRscSf-32" edge="1">
          <mxGeometry relative="1" as="geometry" />
        </mxCell>
        <mxCell id="cYVr-QTFlKvtjmaRscSf-31" value="Проверить почту с помощью регулярного выражения" style="rounded=1;whiteSpace=wrap;html=1;align=center;" parent="1" vertex="1">
          <mxGeometry x="1880" y="640" width="120" height="60" as="geometry" />
        </mxCell>
        <mxCell id="cYVr-QTFlKvtjmaRscSf-71" style="edgeStyle=orthogonalEdgeStyle;rounded=0;orthogonalLoop=1;jettySize=auto;html=1;entryX=0;entryY=0.5;entryDx=0;entryDy=0;" parent="1" source="cYVr-QTFlKvtjmaRscSf-32" target="cYVr-QTFlKvtjmaRscSf-42" edge="1">
          <mxGeometry relative="1" as="geometry" />
        </mxCell>
        <mxCell id="cYVr-QTFlKvtjmaRscSf-72" style="edgeStyle=orthogonalEdgeStyle;rounded=0;orthogonalLoop=1;jettySize=auto;html=1;entryX=0;entryY=0.5;entryDx=0;entryDy=0;" parent="1" source="cYVr-QTFlKvtjmaRscSf-32" target="cYVr-QTFlKvtjmaRscSf-38" edge="1">
          <mxGeometry relative="1" as="geometry" />
        </mxCell>
        <mxCell id="cYVr-QTFlKvtjmaRscSf-32" value="Проверить почту с помощью регулярного выражения" style="rounded=1;whiteSpace=wrap;html=1;align=center;" parent="1" vertex="1">
          <mxGeometry x="1880" y="730" width="120" height="60" as="geometry" />
        </mxCell>
        <mxCell id="cYVr-QTFlKvtjmaRscSf-73" style="edgeStyle=orthogonalEdgeStyle;rounded=0;orthogonalLoop=1;jettySize=auto;html=1;entryX=0;entryY=0.5;entryDx=0;entryDy=0;" parent="1" source="cYVr-QTFlKvtjmaRscSf-38" target="cYVr-QTFlKvtjmaRscSf-44" edge="1">
          <mxGeometry relative="1" as="geometry" />
        </mxCell>
        <mxCell id="cYVr-QTFlKvtjmaRscSf-38" value="&lt;div&gt;Если электронная&lt;/div&gt;&lt;div&gt;почта корректна (true)&lt;/div&gt;" style="rounded=1;whiteSpace=wrap;html=1;align=center;" parent="1" vertex="1">
          <mxGeometry x="2040" y="670" width="120" height="60" as="geometry" />
        </mxCell>
        <mxCell id="cYVr-QTFlKvtjmaRscSf-75" style="edgeStyle=orthogonalEdgeStyle;rounded=0;orthogonalLoop=1;jettySize=auto;html=1;entryX=1;entryY=0.5;entryDx=0;entryDy=0;" parent="1" source="cYVr-QTFlKvtjmaRscSf-44" target="cYVr-QTFlKvtjmaRscSf-50" edge="1">
          <mxGeometry relative="1" as="geometry">
            <Array as="points">
              <mxPoint x="2340" y="670" />
              <mxPoint x="2340" y="980" />
            </Array>
          </mxGeometry>
        </mxCell>
        <mxCell id="cYVr-QTFlKvtjmaRscSf-44" value="&lt;div&gt;Установить текст сообщения: &quot;Вы подписались на рассылку.&quot;&lt;/div&gt;&lt;div&gt;&lt;br&gt;&lt;/div&gt;Установить цвет текста сообщения на зеленый (#00ff00)" style="rounded=1;whiteSpace=wrap;html=1;align=center;" parent="1" vertex="1">
          <mxGeometry x="2200" y="610" width="120" height="120" as="geometry" />
        </mxCell>
        <mxCell id="cYVr-QTFlKvtjmaRscSf-76" style="edgeStyle=orthogonalEdgeStyle;rounded=0;orthogonalLoop=1;jettySize=auto;html=1;entryX=1;entryY=0.5;entryDx=0;entryDy=0;exitX=0.5;exitY=1;exitDx=0;exitDy=0;" parent="1" source="cYVr-QTFlKvtjmaRscSf-46" target="cYVr-QTFlKvtjmaRscSf-50" edge="1">
          <mxGeometry relative="1" as="geometry">
            <mxPoint x="1710" y="900" as="targetPoint" />
            <Array as="points">
              <mxPoint x="2260" y="980" />
            </Array>
          </mxGeometry>
        </mxCell>
        <mxCell id="cYVr-QTFlKvtjmaRscSf-46" value="&lt;div&gt;Установить текст сообщения: &quot;Пожалуйста, введите правильную электронную почту.&quot;&lt;/div&gt;&lt;div&gt;&lt;br&gt;&lt;/div&gt;&lt;div&gt;Установить цвет текста сообщения на красный (#ff0000)&lt;/div&gt;" style="rounded=1;whiteSpace=wrap;html=1;align=center;" parent="1" vertex="1">
          <mxGeometry x="2200" y="790" width="120" height="140" as="geometry" />
        </mxCell>
        <mxCell id="cYVr-QTFlKvtjmaRscSf-50" value="Конец" style="rounded=1;whiteSpace=wrap;html=1;" parent="1" vertex="1">
          <mxGeometry x="1560" y="960" width="120" height="40" as="geometry" />
        </mxCell>
        <mxCell id="cYVr-QTFlKvtjmaRscSf-56" value="" style="endArrow=classic;html=1;rounded=0;entryX=0.5;entryY=0;entryDx=0;entryDy=0;" parent="1" target="5CZu6_UWeMTuLkj3tGNh-25" edge="1">
          <mxGeometry width="50" height="50" relative="1" as="geometry">
            <mxPoint x="744.5" y="30" as="sourcePoint" />
            <mxPoint x="930" y="30" as="targetPoint" />
            <Array as="points">
              <mxPoint x="985" y="30" />
            </Array>
          </mxGeometry>
        </mxCell>
        <mxCell id="cYVr-QTFlKvtjmaRscSf-57" value="" style="endArrow=classic;html=1;rounded=0;entryX=0.5;entryY=1;entryDx=0;entryDy=0;" parent="1" target="cYVr-QTFlKvtjmaRscSf-1" edge="1">
          <mxGeometry width="50" height="50" relative="1" as="geometry">
            <mxPoint x="1225" y="440" as="sourcePoint" />
            <mxPoint x="1230" y="390" as="targetPoint" />
          </mxGeometry>
        </mxCell>
        <mxCell id="cYVr-QTFlKvtjmaRscSf-58" value="Пользователи" style="edgeLabel;html=1;align=center;verticalAlign=middle;resizable=0;points=[];" parent="cYVr-QTFlKvtjmaRscSf-57" vertex="1" connectable="0">
          <mxGeometry x="-0.0008" y="-1" relative="1" as="geometry">
            <mxPoint as="offset" />
          </mxGeometry>
        </mxCell>
        <mxCell id="cYVr-QTFlKvtjmaRscSf-60" value="" style="endArrow=classic;html=1;rounded=0;entryX=0.5;entryY=0;entryDx=0;entryDy=0;" parent="1" target="cYVr-QTFlKvtjmaRscSf-1" edge="1">
          <mxGeometry width="50" height="50" relative="1" as="geometry">
            <mxPoint x="980" y="30" as="sourcePoint" />
            <mxPoint x="1220.5" y="200" as="targetPoint" />
            <Array as="points">
              <mxPoint x="1225" y="30" />
            </Array>
          </mxGeometry>
        </mxCell>
        <mxCell id="cYVr-QTFlKvtjmaRscSf-74" style="edgeStyle=orthogonalEdgeStyle;rounded=0;orthogonalLoop=1;jettySize=auto;html=1;entryX=0;entryY=0.5;entryDx=0;entryDy=0;" parent="1" source="cYVr-QTFlKvtjmaRscSf-42" target="cYVr-QTFlKvtjmaRscSf-46" edge="1">
          <mxGeometry relative="1" as="geometry" />
        </mxCell>
        <mxCell id="cYVr-QTFlKvtjmaRscSf-42" value="&lt;div&gt;Если электронная&lt;/div&gt;&lt;div&gt;почта некорректна (false)&lt;/div&gt;" style="rounded=1;whiteSpace=wrap;html=1;align=center;" parent="1" vertex="1">
          <mxGeometry x="2040" y="790" width="120" height="60" as="geometry" />
        </mxCell>
        <mxCell id="cYVr-QTFlKvtjmaRscSf-84" style="edgeStyle=orthogonalEdgeStyle;rounded=0;orthogonalLoop=1;jettySize=auto;html=1;entryX=0.5;entryY=0;entryDx=0;entryDy=0;" parent="1" source="cYVr-QTFlKvtjmaRscSf-77" target="cYVr-QTFlKvtjmaRscSf-82" edge="1">
          <mxGeometry relative="1" as="geometry">
            <Array as="points">
              <mxPoint x="950" y="710" />
              <mxPoint x="950" y="770" />
              <mxPoint x="1100" y="770" />
            </Array>
          </mxGeometry>
        </mxCell>
        <mxCell id="cYVr-QTFlKvtjmaRscSf-86" style="edgeStyle=orthogonalEdgeStyle;rounded=0;orthogonalLoop=1;jettySize=auto;html=1;endArrow=none;endFill=0;" parent="1" source="cYVr-QTFlKvtjmaRscSf-77" target="cYVr-QTFlKvtjmaRscSf-85" edge="1">
          <mxGeometry relative="1" as="geometry">
            <Array as="points">
              <mxPoint x="950" y="710" />
              <mxPoint x="950" y="770" />
            </Array>
          </mxGeometry>
        </mxCell>
        <mxCell id="cYVr-QTFlKvtjmaRscSf-77" value="Администраторы" style="shape=umlActor;verticalLabelPosition=bottom;verticalAlign=top;html=1;outlineConnect=0;" parent="1" vertex="1">
          <mxGeometry x="870" y="680" width="30" height="60" as="geometry" />
        </mxCell>
        <mxCell id="cYVr-QTFlKvtjmaRscSf-78" value="Добавление/Редактирование/Удаление новостей" style="ellipse;whiteSpace=wrap;html=1;" parent="1" vertex="1">
          <mxGeometry x="1010" y="680" width="180" height="60" as="geometry" />
        </mxCell>
        <mxCell id="cYVr-QTFlKvtjmaRscSf-83" style="edgeStyle=orthogonalEdgeStyle;rounded=0;orthogonalLoop=1;jettySize=auto;html=1;entryX=0.5;entryY=1;entryDx=0;entryDy=0;" parent="1" source="cYVr-QTFlKvtjmaRscSf-79" target="cYVr-QTFlKvtjmaRscSf-78" edge="1">
          <mxGeometry relative="1" as="geometry">
            <Array as="points">
              <mxPoint x="950" y="770" />
              <mxPoint x="1100" y="770" />
            </Array>
          </mxGeometry>
        </mxCell>
        <mxCell id="cYVr-QTFlKvtjmaRscSf-87" style="edgeStyle=orthogonalEdgeStyle;rounded=0;orthogonalLoop=1;jettySize=auto;html=1;endArrow=none;endFill=0;" parent="1" source="cYVr-QTFlKvtjmaRscSf-79" target="cYVr-QTFlKvtjmaRscSf-85" edge="1">
          <mxGeometry relative="1" as="geometry">
            <Array as="points">
              <mxPoint x="950" y="770" />
            </Array>
          </mxGeometry>
        </mxCell>
        <mxCell id="cYVr-QTFlKvtjmaRscSf-79" value="Модераторы" style="shape=umlActor;verticalLabelPosition=bottom;verticalAlign=top;html=1;outlineConnect=0;" parent="1" vertex="1">
          <mxGeometry x="935" y="790" width="30" height="60" as="geometry" />
        </mxCell>
        <mxCell id="cYVr-QTFlKvtjmaRscSf-82" value="Добавление/Редактирование/Удаление команд" style="ellipse;whiteSpace=wrap;html=1;" parent="1" vertex="1">
          <mxGeometry x="1010" y="800" width="180" height="60" as="geometry" />
        </mxCell>
        <mxCell id="cYVr-QTFlKvtjmaRscSf-93" style="edgeStyle=orthogonalEdgeStyle;rounded=0;orthogonalLoop=1;jettySize=auto;html=1;entryX=0.5;entryY=1;entryDx=0;entryDy=0;" parent="1" source="cYVr-QTFlKvtjmaRscSf-85" target="cYVr-QTFlKvtjmaRscSf-91" edge="1">
          <mxGeometry relative="1" as="geometry" />
        </mxCell>
        <mxCell id="cYVr-QTFlKvtjmaRscSf-94" style="edgeStyle=orthogonalEdgeStyle;rounded=0;orthogonalLoop=1;jettySize=auto;html=1;entryX=0.5;entryY=0;entryDx=0;entryDy=0;" parent="1" source="cYVr-QTFlKvtjmaRscSf-85" target="cYVr-QTFlKvtjmaRscSf-92" edge="1">
          <mxGeometry relative="1" as="geometry" />
        </mxCell>
        <mxCell id="cYVr-QTFlKvtjmaRscSf-95" style="edgeStyle=orthogonalEdgeStyle;rounded=0;orthogonalLoop=1;jettySize=auto;html=1;endArrow=none;endFill=0;" parent="1" source="cYVr-QTFlKvtjmaRscSf-85" target="cYVr-QTFlKvtjmaRscSf-88" edge="1">
          <mxGeometry relative="1" as="geometry" />
        </mxCell>
        <mxCell id="cYVr-QTFlKvtjmaRscSf-85" value="Пользователи" style="shape=umlActor;verticalLabelPosition=bottom;verticalAlign=top;html=1;outlineConnect=0;" parent="1" vertex="1">
          <mxGeometry x="1240" y="740" width="30" height="60" as="geometry" />
        </mxCell>
        <mxCell id="cYVr-QTFlKvtjmaRscSf-88" value="Система" style="shape=umlActor;verticalLabelPosition=bottom;verticalAlign=top;html=1;outlineConnect=0;" parent="1" vertex="1">
          <mxGeometry x="1520" y="740" width="30" height="60" as="geometry" />
        </mxCell>
        <mxCell id="cYVr-QTFlKvtjmaRscSf-91" value="Подписка на рассылку" style="ellipse;whiteSpace=wrap;html=1;" parent="1" vertex="1">
          <mxGeometry x="1355" y="700" width="90" height="40" as="geometry" />
        </mxCell>
        <mxCell id="cYVr-QTFlKvtjmaRscSf-92" value="Просмотр новостей и команд" style="ellipse;whiteSpace=wrap;html=1;" parent="1" vertex="1">
          <mxGeometry x="1335" y="800" width="130" height="60" as="geometry" />
        </mxCell>
        <mxCell id="cYVr-QTFlKvtjmaRscSf-108" style="edgeStyle=orthogonalEdgeStyle;rounded=0;orthogonalLoop=1;jettySize=auto;html=1;entryX=1;entryY=0.5;entryDx=0;entryDy=0;" parent="1" source="cYVr-QTFlKvtjmaRscSf-96" target="cYVr-QTFlKvtjmaRscSf-97" edge="1">
          <mxGeometry relative="1" as="geometry" />
        </mxCell>
        <mxCell id="cYVr-QTFlKvtjmaRscSf-109" style="edgeStyle=orthogonalEdgeStyle;rounded=0;orthogonalLoop=1;jettySize=auto;html=1;entryX=0;entryY=0.5;entryDx=0;entryDy=0;" parent="1" source="cYVr-QTFlKvtjmaRscSf-96" target="cYVr-QTFlKvtjmaRscSf-106" edge="1">
          <mxGeometry relative="1" as="geometry" />
        </mxCell>
        <mxCell id="cYVr-QTFlKvtjmaRscSf-96" value="Директор" style="rounded=0;whiteSpace=wrap;html=1;" parent="1" vertex="1">
          <mxGeometry x="400" y="670" width="120" height="60" as="geometry" />
        </mxCell>
        <mxCell id="cYVr-QTFlKvtjmaRscSf-105" style="edgeStyle=orthogonalEdgeStyle;rounded=0;orthogonalLoop=1;jettySize=auto;html=1;entryX=0.5;entryY=0;entryDx=0;entryDy=0;" parent="1" source="cYVr-QTFlKvtjmaRscSf-97" target="cYVr-QTFlKvtjmaRscSf-104" edge="1">
          <mxGeometry relative="1" as="geometry" />
        </mxCell>
        <mxCell id="cYVr-QTFlKvtjmaRscSf-97" value="Модератор" style="rounded=0;whiteSpace=wrap;html=1;" parent="1" vertex="1">
          <mxGeometry x="280" y="750" width="120" height="60" as="geometry" />
        </mxCell>
        <mxCell id="cYVr-QTFlKvtjmaRscSf-104" value="Администратор" style="rounded=0;whiteSpace=wrap;html=1;" parent="1" vertex="1">
          <mxGeometry x="280" y="850" width="120" height="60" as="geometry" />
        </mxCell>
        <mxCell id="cYVr-QTFlKvtjmaRscSf-111" style="edgeStyle=orthogonalEdgeStyle;rounded=0;orthogonalLoop=1;jettySize=auto;html=1;entryX=0.5;entryY=0;entryDx=0;entryDy=0;" parent="1" source="cYVr-QTFlKvtjmaRscSf-106" target="cYVr-QTFlKvtjmaRscSf-110" edge="1">
          <mxGeometry relative="1" as="geometry" />
        </mxCell>
        <mxCell id="cYVr-QTFlKvtjmaRscSf-113" style="edgeStyle=orthogonalEdgeStyle;rounded=0;orthogonalLoop=1;jettySize=auto;html=1;entryX=0.5;entryY=0;entryDx=0;entryDy=0;" parent="1" source="cYVr-QTFlKvtjmaRscSf-106" target="cYVr-QTFlKvtjmaRscSf-112" edge="1">
          <mxGeometry relative="1" as="geometry" />
        </mxCell>
        <mxCell id="cYVr-QTFlKvtjmaRscSf-106" value="Технический специалист" style="rounded=0;whiteSpace=wrap;html=1;" parent="1" vertex="1">
          <mxGeometry x="520" y="750" width="120" height="60" as="geometry" />
        </mxCell>
        <mxCell id="cYVr-QTFlKvtjmaRscSf-110" value="Веб-дизайнер" style="rounded=0;whiteSpace=wrap;html=1;" parent="1" vertex="1">
          <mxGeometry x="450" y="850" width="120" height="60" as="geometry" />
        </mxCell>
        <mxCell id="cYVr-QTFlKvtjmaRscSf-116" style="edgeStyle=orthogonalEdgeStyle;rounded=0;orthogonalLoop=1;jettySize=auto;html=1;entryX=0.5;entryY=0;entryDx=0;entryDy=0;" parent="1" source="cYVr-QTFlKvtjmaRscSf-112" target="cYVr-QTFlKvtjmaRscSf-115" edge="1">
          <mxGeometry relative="1" as="geometry" />
        </mxCell>
        <mxCell id="cYVr-QTFlKvtjmaRscSf-117" style="edgeStyle=orthogonalEdgeStyle;rounded=0;orthogonalLoop=1;jettySize=auto;html=1;entryX=0.5;entryY=0;entryDx=0;entryDy=0;" parent="1" source="cYVr-QTFlKvtjmaRscSf-112" target="cYVr-QTFlKvtjmaRscSf-114" edge="1">
          <mxGeometry relative="1" as="geometry" />
        </mxCell>
        <mxCell id="cYVr-QTFlKvtjmaRscSf-112" value="Веб-разработчик" style="rounded=0;whiteSpace=wrap;html=1;" parent="1" vertex="1">
          <mxGeometry x="590" y="850" width="120" height="60" as="geometry" />
        </mxCell>
        <mxCell id="cYVr-QTFlKvtjmaRscSf-114" value="&lt;div&gt;Frontend&lt;/div&gt;&lt;div&gt;разработчик&lt;/div&gt;" style="rounded=0;whiteSpace=wrap;html=1;" parent="1" vertex="1">
          <mxGeometry x="520" y="950" width="120" height="60" as="geometry" />
        </mxCell>
        <mxCell id="cYVr-QTFlKvtjmaRscSf-115" value="&lt;div&gt;Backend&lt;/div&gt;&lt;div&gt;разработчик&lt;/div&gt;" style="rounded=0;whiteSpace=wrap;html=1;" parent="1" vertex="1">
          <mxGeometry x="660" y="950" width="120" height="60" as="geometry" />
        </mxCell>
      </root>
    </mxGraphModel>
  </diagram>
</mxfile>
